<?xml version="1.0" encoding="utf-8"?>
<!DOCTYPE svg PUBLIC "-//W3C//DTD SVG 20010904//EN" "http://www.w3.org/TR/2001/REC-SVG-20010904/DTD/svg10.dtd">
<svg version="1.0" xmlns="http://www.w3.org/2000/svg" width="130pt" height="130pt" viewBox="0 0 130 130" style="" preserveAspectRatio="xMidYMid meet">
<g fill="#BAA8A2FF" stroke="#BAA8A2FF">
<path d="M 2.000 65.000 L 2.000 128.000 65.500 128.000 L 129.000 128.000 129.000 65.000 L 129.000 2.000 65.500 2.000 L 2.000 2.000 2.000 65.000 M 86.865 25.932 C 92.034 27.361 96.000 30.980 96.000 34.267 C 96.000 36.829 91.280 42.002 88.945 41.997 C 88.150 41.996 84.144 39.761 80.041 37.031 C 75.939 34.301 71.364 31.800 69.875 31.473 C 61.842 29.708 52.028 36.976 48.022 47.656 C 44.784 56.288 45.382 68.293 49.450 76.322 C 54.865 87.010 63.139 92.000 75.442 92.000 C 81.611 92.000 83.574 91.543 88.340 89.000 C 94.861 85.520 96.000 85.341 96.000 87.792 C 96.000 90.758 89.644 96.558 82.584 100.033 C 77.450 102.561 74.243 103.413 68.474 103.783 C 59.204 104.378 53.551 102.884 46.001 97.842 C 35.862 91.071 31.563 81.600 31.524 65.948 C 31.501 56.891 31.696 56.001 35.278 48.752 C 40.889 37.399 49.673 30.542 63.945 26.376 C 72.074 24.002 79.373 23.861 86.865 25.932 "/></g>
<g fill="#FFFFFFFF" stroke="#FFFFFFFF">
<path d="M 67.000 25.508 C 52.242 28.819 40.427 37.625 34.811 49.500 C 31.724 56.027 31.505 57.176 31.577 66.500 C 31.643 75.034 32.060 77.487 34.426 83.231 C 37.742 91.284 42.970 96.856 50.836 100.719 C 55.824 103.168 57.635 103.500 66.000 103.500 C 74.197 103.500 76.278 103.135 81.175 100.840 C 87.806 97.731 96.000 90.564 96.000 87.873 C 96.000 85.365 95.175 85.489 88.500 89.000 C 83.642 91.556 81.692 92.000 75.337 92.000 C 62.150 92.000 52.547 85.375 47.913 73.079 C 45.100 65.615 45.532 51.615 48.767 45.384 C 51.909 39.332 55.730 35.178 60.299 32.848 C 66.125 29.875 70.547 30.794 79.867 36.913 C 84.129 39.711 88.240 42.000 89.003 42.000 C 91.176 42.000 96.000 36.853 96.000 34.535 C 96.000 26.987 81.093 22.347 67.000 25.508 "/></g>
</svg>
