<svg height="68" width="68" viewBox="0 0 68 68" xmlns="http://www.w3.org/2000/svg"><path fill-rule="evenodd" clip-rule="evenodd" d="M1 2.5C1 1.39543 1.89543 0.5 3 0.5H13.6803C15.1102 0.5 16.3414 1.50926 16.622 2.91142L19.2764 16.1782H64.7871C66.6734 16.1782 68.0917 17.8983 67.7321 19.7501L62.7777 45.2625C62.4126 47.1425 60.7662 48.5 58.851 48.5H24.6568C22.7347 48.5 21.0843 47.1328 20.7267 45.2442L15.6738 18.5604L12.8605 4.5H3C1.89543 4.5 1 3.60457 1 2.5ZM20.0512 20.1782L24.6568 44.5H58.851L63.5742 20.1782H20.0512Z" /><path d="M31.5 60.5C31.5 63.2614 29.2614 65.5 26.5 65.5C23.7386 65.5 21.5 63.2614 21.5 60.5C21.5 57.7386 23.7386 55.5 26.5 55.5C29.2614 55.5 31.5 57.7386 31.5 60.5Z" /><path d="M63.5 60.5C63.5 63.2614 61.2614 65.5 58.5 65.5C55.7386 65.5 53.5 63.2614 53.5 60.5C53.5 57.7386 55.7386 55.5 58.5 55.5C61.2614 55.5 63.5 57.7386 63.5 60.5Z" /></svg>